<svg version="1" xmlns="http://www.w3.org/2000/svg" width="574.667" height="574.667" viewBox="0 0 431.000000 431.000000"><path d="M275.5 109.2c-22.8 2.9-40.9 18.1-45.5 38.3-1.9 8-1.4 19.3 1 26.5 2.1 6.3 7 14.5 9.9 16.6.9.7 2.7 2.2 4.1 3.4 4 3.6 17.9 9.7 33.3 14.7 16.5 5.3 24.3 9 29.2 13.7 5.4 5.3 7.5 10.8 7.1 19.1-.8 18.3-13.8 30.2-34.1 31-12.9.6-22.9-2.3-33.8-10-9.7-6.7-11.1-7.5-13.2-7.5-3 .1-4.9 1.9-8.9 8.5l-3.5 5.9 2.2 2.4c4 4.4 15.7 12 23 15.1 20.3 8.4 45.3 8 62.9-1 11.7-6 21.6-17.5 25.7-30 4.6-14.2 3.7-30.9-2.4-41.2-7.1-12.1-16.3-17.8-44.9-27.7-17.3-6-22.5-8.4-28.2-13.4-5-4.3-7.4-8.9-7.7-15.3-1.1-16.9 13.1-29.3 33.2-29.3 10.6 0 18.1 2.6 30.7 10.3 8.1 5 10 4.3 14.9-5.2l3.5-7.1-5-3.9c-13.6-10.7-34.7-16.2-53.5-13.9zM104.8 114.1c-1.1.7-1.5 173.6-.3 174.7.4.4 22.9.7 50 .8h49.3l-.2-10-.1-10.1h-37.3c-26.2-.1-37.5-.4-38-1.2-.4-.6-.7-35.6-.7-77.7.1-76.5.1-76.6-2-76.7-10.8-.4-19.9-.3-20.7.2zM34.2 318.8c-27.7.2-32.2.4-32.2 1.7 0 1.3 25.3 1.5 214 1.5 189.6 0 214-.2 214-1.5 0-.9-.9-1.5-2.2-1.5-12.7-.3-369.3-.4-393.6-.2z"/></svg>